<?xml version="1.0" encoding="UTF-8" standalone="no"?>
<!-- Created with Inkscape (http://www.inkscape.org/) -->

<svg
   xmlns:dc="http://purl.org/dc/elements/1.1/"
   xmlns:cc="http://creativecommons.org/ns#"
   xmlns:rdf="http://www.w3.org/1999/02/22-rdf-syntax-ns#"
   xmlns:svg="http://www.w3.org/2000/svg"
   xmlns="http://www.w3.org/2000/svg"
   version="1.1"
   width="744.09448"
   height="1052.3622"
   id="svg4062">
  <defs
     id="defs4064" />
  <metadata
     id="metadata4067">
    <rdf:RDF>
      <cc:Work
         rdf:about="">
        <dc:format>image/svg+xml</dc:format>
        <dc:type
           rdf:resource="http://purl.org/dc/dcmitype/StillImage" />
        <dc:title></dc:title>
      </cc:Work>
    </rdf:RDF>
  </metadata>
  <g
     id="layer1">
    <path
       d="m 97.33134,1053.1638 c -32.01786,-0.2143 -58.21429,-0.7281 -58.21429,-1.1417 0,-0.4137 2.28029,-6.6743 5.06732,-13.9126 9.91237,-25.7436 21.31181,-40.44726 36.85882,-47.54264 7.08122,-3.23175 11.32743,-3.99425 27.85714,-5.00239 10.72634,-0.65419 26.64028,-1.22099 35.36431,-1.25956 8.72403,-0.0386 19.91078,-0.49331 24.85947,-1.01055 l 8.9976,-0.94043 -0.87894,-33.70243 c -0.93075,-35.68829 -3.66455,-61.17594 -10.83182,-100.98694 -4.53061,-25.16559 -6.10316,-29.3078 -14.08187,-37.09313 -7.46201,-7.28115 -14.61062,-12.0186 -39.87378,-26.42475 C 85.29544,768.65898 68.86257,756.98974 61.94096,748.27567 51.40605,735.01258 33.69417,695.77204 25.51484,667.57388 17.3135,639.29981 12.07633,604.70306 9.70943,563.16337 l -0.99713,-17.5 39.35985,0 39.35985,0 0.83022,11.78571 c 0.45662,6.48215 1.52071,23.35715 2.36465,37.5 5.42754,90.95628 29.65085,140.38115 75.64217,154.33915 49.74951,15.0986 68.05663,18.23143 87.86478,15.03603 14.12273,-2.27823 43.45796,-10.34336 57.95079,-15.93239 41.08671,-15.84471 66.72396,-77.77385 74.31474,-179.51421 l 1.73202,-23.2139 39.01942,-3.9e-4 c 30.592,-3.1e-4 38.88629,0.38568 38.40292,1.78571 -0.3391,0.98215 -2.27853,18.17858 -4.30983,38.21429 -5.97381,58.9222 -8.57157,74.57174 -16.3625,98.57143 -5.28431,16.27814 -18.54756,43.80284 -28.22873,58.58194 -10.98694,16.77249 -21.60247,24.48206 -62.6949,45.53244 -21.78464,11.1596 -34.40824,20.92296 -39.2021,30.3197 -7.15868,14.03216 -18.49574,108.05768 -18.49574,153.39702 l 0,10.37128 8.92857,1.04116 c 4.91071,0.57264 23.39286,1.54499 41.07143,2.16079 36.51247,1.27181 42.99828,2.6319 53.83524,11.28928 8.77109,7.00699 11.79276,10.41149 18.14367,20.44199 4.9751,7.8577 16.59252,32.7133 16.59252,35.4999 0,1.2545 -171.62865,1.4037 -337.5,0.2935 z"
       id="path6162"
       style="fill:#7f898a;fill-opacity:1;stroke:none" />
    <path
       d="m 102.13239,532.78756 c 2.21091,-21.42172 14.02532,-34.65024 38.19455,-42.76624 8.80428,-2.95646 12.28546,-3.14759 67.14286,-3.68639 60.09947,-0.59029 104.89361,1.11309 121.61581,4.62467 10.99512,2.30892 22.29726,7.64897 30.81306,14.55859 6.45583,5.23819 13.81837,18.64684 15.37896,28.00814 l 0.89307,5.35715 -129.7076,0.0124 c -71.33917,0.007 -133.18299,0.42969 -137.43071,0.93969 l -7.72313,0.92729 0.82313,-7.97532 0,-1e-5 z"
       id="path6939"
       style="fill:#ffffff;fill-opacity:1;stroke:#000000;stroke-width:2.24285722;stroke-linejoin:miter;stroke-miterlimit:4;stroke-opacity:0;stroke-dasharray:none" />
    <path
       d="m 353.51615,545.80576 -0.75,0 -7.125,0 -9.1875,0 -9.71875,0 -1.46875,0 -17.59375,0 -30.1875,0 -13.09375,0 -22.5625,0 -42.84375,-0.1 -28.59375,-0.651 -18.90625,0.751 -14.40625,0 -8.40625,0 -2.5625,0 -10,0 -4.03125,0 -5.84375,0 -6.78125,0 -1.125,0 -4,0 c 0,0 -5.48248,95.52082 22.94312,152.417 7.13096,14.27321 14.14003,27.40927 25.33217,34.2928 28.58764,17.58233 67.98002,25.97376 94.78721,29.47717 13.90254,1.81691 48.04936,-7.21686 79.53307,-21.97693 17.41583,-8.16482 26.49404,-23.85746 35.53515,-43.98285 28.9784,-64.50553 27.99428,-152.10272 27.99428,-152.10272 l -5.78125,1.87553 -16.59821,0 13.41071,0 -6.8125,0 -6.75,0 z m -1.21875,0 0.15625,0 z m -24.28125,0 -1.15625,0 z"
       id="path6914"
       style="fill:#b89c2c;fill-opacity:1;stroke:none" />
  </g>
</svg>
