<?xml version="1.0" encoding="UTF-8" standalone="no"?>
<!-- Created with Inkscape (http://www.inkscape.org/) -->

<svg
   xmlns:osb="http://www.openswatchbook.org/uri/2009/osb"
   xmlns:dc="http://purl.org/dc/elements/1.1/"
   xmlns:cc="http://creativecommons.org/ns#"
   xmlns:rdf="http://www.w3.org/1999/02/22-rdf-syntax-ns#"
   xmlns:svg="http://www.w3.org/2000/svg"
   xmlns="http://www.w3.org/2000/svg"
   xmlns:xlink="http://www.w3.org/1999/xlink"
   xmlns:sodipodi="http://sodipodi.sourceforge.net/DTD/sodipodi-0.dtd"
   xmlns:inkscape="http://www.inkscape.org/namespaces/inkscape"
   inkscape:version="0.48.5 r10040"
   version="1.1"
   id="svg2"
   height="297mm"
   width="210mm"
   sodipodi:docname="logo.svg">
  <defs
     id="defs4">
    <linearGradient
       id="linearGradient6862"
       osb:paint="solid">
      <stop
         style="stop-color:#000000;stop-opacity:1;"
         offset="0"
         id="stop6864" />
    </linearGradient>
    <marker
       inkscape:stockid="Arrow1Lstart"
       orient="auto"
       refY="0.0"
       refX="0.0"
       id="Arrow1Lstart"
       style="overflow:visible">
      <path
         id="path6180"
         d="M 0.0,0.0 L 5.0,-5.0 L -12.5,0.0 L 5.0,5.0 L 0.0,0.0 z "
         style="fill-rule:evenodd;stroke:#000000;stroke-width:1.0pt"
         transform="scale(0.8) translate(12.5,0)" />
    </marker>
    <linearGradient
       inkscape:collect="always"
       id="linearGradient6154">
      <stop
         style="stop-color:#d35400;stop-opacity:1;"
         offset="0"
         id="stop6156" />
      <stop
         style="stop-color:#d35400;stop-opacity:0;"
         offset="1"
         id="stop6158" />
    </linearGradient>
    <filter
       inkscape:label="Colorize"
       inkscape:menu="Color"
       inkscape:menu-tooltip="Blend image or object with a flood color and set lightness and contrast"
       x="0"
       y="0"
       width="1"
       height="1"
       color-interpolation-filters="sRGB"
       id="filter6003">
      <feColorMatrix
         values="1"
         in="SourceGraphic"
         type="saturate"
         result="result2"
         id="feColorMatrix6005" />
      <feFlood
         flood-color="rgb(254,102,0)"
         flood-opacity="1"
         result="result1"
         id="feFlood6007" />
      <feBlend
         in2="result2"
         mode="multiply"
         in="result1"
         result="result3"
         id="feBlend6009" />
      <feComposite
         operator="in"
         k2="1"
         result="result4"
         in2="SourceGraphic"
         id="feComposite6011" />
    </filter>
    <linearGradient
       inkscape:collect="always"
       xlink:href="#linearGradient6154"
       id="linearGradient6160"
       x1="342.85715"
       y1="385.21933"
       x2="342.85715"
       y2="182.36218"
       gradientUnits="userSpaceOnUse" />
  </defs>
  <sodipodi:namedview
     id="base"
     pagecolor="#ffffff"
     bordercolor="#666666"
     borderopacity="1.0"
     inkscape:pageopacity="0.0"
     inkscape:pageshadow="2"
     inkscape:zoom="0.7"
     inkscape:cx="571.78851"
     inkscape:cy="694.1201"
     inkscape:document-units="px"
     inkscape:current-layer="layer1"
     showgrid="false"
     inkscape:object-paths="false"
     inkscape:window-width="1366"
     inkscape:window-height="705"
     inkscape:window-x="-8"
     inkscape:window-y="-8"
     inkscape:window-maximized="1" />
  <metadata
     id="metadata7">
    <rdf:RDF>
      <cc:Work
         rdf:about="">
        <dc:format>image/svg+xml</dc:format>
        <dc:type
           rdf:resource="http://purl.org/dc/dcmitype/StillImage" />
        <dc:title />
      </cc:Work>
    </rdf:RDF>
  </metadata>
  <g
     inkscape:label="Calque 1"
     inkscape:groupmode="layer"
     id="layer1">
    <rect
       style="opacity:0.63600003;fill:#000000;fill-opacity:1;stroke:#000000;stroke-width:1.11504042;stroke-linejoin:miter;stroke-miterlimit:4;stroke-opacity:0.00452492;stroke-dasharray:none"
       id="rect6933"
       width="470.45316"
       height="585.51904"
       x="115.12466"
       y="134.64766"
       ry="1.021847" />
    <path
       style="fill:none;stroke:#000000;stroke-width:1px;stroke-linecap:butt;stroke-linejoin:miter;stroke-opacity:1"
       d="M 120 202.375 C 121.49976 205.23794 120.34023 256.41036 132 306.375 C 144.75741 361.04328 168.31164 399.94443 170 402.375 C 195.883 439.63626 268.91711 452.94407 275 487.375 C 288.73816 565.13691 289.01815 574.09239 290 639.375 C 211.90621 648.73139 178.78488 618.22601 150 712.375 C 651.42857 713.80358 550 712.375 550 712.375 C 515.83253 618.9146 484.6571 649.3154 410 639.375 C 412.31574 575.82557 411.22318 569.25313 425 487.375 C 431.73326 447.35803 506.91073 442.68926 530 402.375 C 530 402.375 559.22568 361.94704 568 306.375 C 573.93054 268.81399 574.62005 240.94643 580 202.375 L 500 202.375 C 497.60287 202.375 501.05288 360.95859 432 402.375 C 432 402.375 383.06689 421.28424 355 422.375 C 352.16847 422.3919 353.35688 422.374 350 422.375 C 346.8487 422.376 347.78772 422.393 345 422.375 C 328.46217 421.74758 268 402.375 268 402.375 C 201.2814 367.66772 204.93657 251.80074 202.65625 214.28125 C 200.76018 211.73393 200.51994 208.65772 201.84375 205.96875 C 201.41395 203.64667 200.81927 202.375 200 202.375 L 120 202.375 z "
       id="path3031" />
    <path
       style="fill:#ffff00;fill-opacity:0"
       d="M 120.46875 203 L 121.4375 223.34375 C 123.39476 265.25093 128.87846 300.16709 138.59375 332.21875 C 147.31982 361.00688 165.99717 398.95635 172.6875 401.5 C 175.20434 402.4569 244.12566 416.4783 259.3125 419.125 C 261.27679 419.46733 263.31937 419.8305 263.875 419.9375 C 264.43063 420.0445 261.35862 414.84016 257.03125 408.375 C 245.90648 391.75446 229.3486 358.33997 221.5625 336.8125 C 208.78238 301.47724 201.12473 262.49905 199.71875 225.5 L 198.875 203 L 159.65625 203 L 120.46875 203 z "
       id="path3223" />
    <path
       style="fill:#008000;fill-opacity:0"
       d="M 500.75 203 L 500.71875 211.9375 C 500.70168 223.0201 497.17145 255.354 494.21875 271.5625 C 485.23575 320.87362 465.07942 374.17911 442.0625 409.4375 C 436.58181 417.83308 435.62285 420.128 437.5625 420.125 C 441.60402 420.11794 487.48348 410.84651 519.65625 403.53125 L 529.25 401.34375 L 535.84375 389.6875 C 558.12164 350.17214 574.36213 287.34982 577.21875 229.59375 C 577.65067 220.86146 578.28571 211.29018 578.65625 208.34375 L 579.34375 203 L 540.03125 203 L 500.75 203 z "
       id="path3225" />
    <path
       style="opacity:0.63600003;fill:none;stroke:#e25000;stroke-width:1.42857146;stroke-opacity:0"
       d="M 121.59375 203.46875 L 122.5625 220.96875 C 126.55434 291.02671 138.15341 338.41664 163.1875 386.96875 C 175.32933 410.51712 186.01106 419.95079 225.40625 441.9375 C 257.93589 460.09252 269.81111 469.66715 274 481.0625 C 275.21067 484.35597 277.82966 496.37769 279.8125 507.78125 C 286.58422 546.72625 289.22293 571.83452 290.125 606.46875 L 291 640.15625 L 282 641.09375 C 277.05131 641.61099 265.84903 642.0864 257.125 642.125 C 248.40097 642.16357 232.50759 642.72081 221.78125 643.375 C 205.25154 644.38314 200.98747 645.14325 193.90625 648.375 C 178.28616 655.50372 166.87075 670.29844 157.0625 696.09375 C 154.27339 703.42901 152 709.68308 152 710 C 152 710.31693 179.14733 710.75504 212.34375 710.96875 C 384.22414 712.0753 547.6875 711.94446 547.6875 710.6875 C 547.6875 707.90869 536.09836 683.05423 531.125 675.1875 C 521.8958 660.58902 509.57478 650.19843 496.9375 646.34375 C 493.82308 645.39378 476.47768 644.07705 458.40625 643.4375 C 440.33482 642.79792 421.86161 641.81623 417.34375 641.25 L 409.125 640.21875 L 409.15625 629.34375 C 409.21482 583.25907 420.40037 490.63019 427.625 476.46875 C 432.42074 467.0683 445.02519 457.31723 466.8125 446.15625 C 507.90493 425.10587 518.54431 417.39749 529.53125 400.625 C 539.20449 385.858 552.45528 358.32039 557.75 342.03125 C 564.21633 322.1377 567.26585 305.63273 571.3125 268.65625 C 573.30148 250.48188 575.75643 228.37053 576.75 219.53125 L 578.5625 203.46875 L 539.78125 203.46875 L 501 203.46875 L 499.28125 226.6875 C 493.02995 310.47448 474.97223 366.06116 445.03125 393.78125 C 435.1152 402.96176 424.69685 407.5486 395.6875 415.5 C 359.79017 425.33938 345.72851 425.61445 314.125 417.15625 C 289.32633 410.51925 268.75512 404.09574 263.84375 401.46875 C 256.29545 397.43132 244.80512 387.04348 238.40625 378.46875 C 215.63883 347.95958 206.12718 309.582 202.09375 231.75 C 201.37266 217.83531 200.38021 205.7862 199.875 204.96875 C 199.27544 203.99864 185.53458 203.46875 160.28125 203.46875 L 121.59375 203.46875 z "
       id="path5999" />
    <path
       style="opacity:0.63600003000000005;fill:none;stroke:#e25000;stroke-width:1.42857145999999990;stroke-opacity:0;filter:url(#filter6003)"
       d="M 121.59375 203.46875 L 122.5625 220.96875 C 126.55434 291.02671 138.15341 338.41664 163.1875 386.96875 C 175.32933 410.51712 186.01106 419.95079 225.40625 441.9375 C 257.93589 460.09252 269.81111 469.66715 274 481.0625 C 275.21067 484.35597 277.82966 496.37769 279.8125 507.78125 C 286.58422 546.72625 289.22293 571.83452 290.125 606.46875 L 291 640.15625 L 282 641.09375 C 277.05131 641.61099 265.84903 642.0864 257.125 642.125 C 248.40097 642.16357 232.50759 642.72081 221.78125 643.375 C 205.25154 644.38314 200.98747 645.14325 193.90625 648.375 C 178.28616 655.50372 166.87075 670.29844 157.0625 696.09375 C 154.27339 703.42901 152 709.68308 152 710 C 152 710.31693 179.14733 710.75504 212.34375 710.96875 C 384.22414 712.0753 547.6875 711.94446 547.6875 710.6875 C 547.6875 707.90869 536.09836 683.05423 531.125 675.1875 C 521.8958 660.58902 509.57478 650.19843 496.9375 646.34375 C 493.82308 645.39378 476.47768 644.07705 458.40625 643.4375 C 440.33482 642.79792 421.86161 641.81623 417.34375 641.25 L 409.125 640.21875 L 409.15625 629.34375 C 409.21482 583.25907 420.40037 490.63019 427.625 476.46875 C 432.42074 467.0683 445.02519 457.31723 466.8125 446.15625 C 507.90493 425.10587 518.54431 417.39749 529.53125 400.625 C 539.20449 385.858 552.45528 358.32039 557.75 342.03125 C 564.21633 322.1377 567.26585 305.63273 571.3125 268.65625 C 573.30148 250.48188 575.75643 228.37053 576.75 219.53125 L 578.5625 203.46875 L 539.78125 203.46875 L 501 203.46875 L 499.28125 226.6875 C 493.02995 310.47448 474.97223 366.06116 445.03125 393.78125 C 435.1152 402.96176 424.69685 407.5486 395.6875 415.5 C 359.79017 425.33938 345.72851 425.61445 314.125 417.15625 C 289.32633 410.51925 268.75512 404.09574 263.84375 401.46875 C 256.29545 397.43132 244.80512 387.04348 238.40625 378.46875 C 215.63883 347.95958 206.12718 309.582 202.09375 231.75 C 201.37266 217.83531 200.38021 205.7862 199.875 204.96875 C 199.27544 203.99864 185.53458 203.46875 160.28125 203.46875 L 121.59375 203.46875 z "
       id="path6001" />
    <path
       style="opacity:0.63600003000000005;fill:#95a5a6;fill-opacity:0.97254902000000021;stroke:none;stroke-width:1.42900000000000000;stroke-opacity:0;stroke-miterlimit:4;stroke-dasharray:none"
       d="m 210.19912,710.97025 c -32.01786,-0.21432 -58.21429,-0.7281 -58.21429,-1.14177 0,-0.41366 2.28029,-6.6743 5.06732,-13.91255 9.91237,-25.74361 21.31181,-40.44727 36.85882,-47.54265 7.08122,-3.23175 11.32743,-3.99425 27.85714,-5.00239 10.72634,-0.65419 26.64028,-1.22099 35.36431,-1.25956 8.72403,-0.0386 19.91078,-0.49331 24.85947,-1.01055 l 8.9976,-0.94043 -0.87894,-33.70243 C 289.1798,570.76963 286.446,545.28198 279.27873,505.47098 274.74812,480.30539 273.17557,476.16318 265.19686,468.37785 257.73485,461.0967 250.58624,456.35925 225.32308,441.9531 198.16322,426.4654 181.73035,414.79616 174.80874,406.08209 164.27383,392.819 146.56195,353.57846 138.38262,325.3803 130.18128,297.10623 124.94411,262.50948 122.57721,220.96979 l -0.99713,-17.5 39.35985,0 39.35985,0 0.83022,11.78571 c 0.45662,6.48215 1.52071,23.35715 2.36465,37.5 5.42754,90.95628 29.65085,140.38115 75.64217,154.33915 49.74951,15.0986 68.05663,18.23143 87.86478,15.03603 14.12273,-2.27823 43.45796,-10.34336 57.95079,-15.93239 41.08671,-15.84471 66.72396,-77.77385 74.31474,-179.51421 l 1.73202,-23.2139 39.01942,-3.9e-4 c 30.592,-3.1e-4 38.88629,0.38568 38.40292,1.78571 -0.3391,0.98215 -2.27853,18.17858 -4.30983,38.21429 -5.97381,58.9222 -8.57157,74.57174 -16.3625,98.57143 -5.28431,16.27814 -18.54756,43.80284 -28.22873,58.58194 -10.98694,16.77249 -21.60247,24.48206 -62.6949,45.53244 -21.78464,11.1596 -34.40824,20.92296 -39.2021,30.3197 -7.15868,14.03216 -18.49574,108.05768 -18.49574,153.39702 l 0,10.37128 8.92857,1.04116 c 4.91071,0.57264 23.39286,1.54499 41.07143,2.16079 36.51247,1.27181 42.99828,2.6319 53.83524,11.28928 8.77109,7.00703 11.79276,10.41147 18.14367,20.44203 4.9751,7.85763 16.59252,32.71322 16.59252,35.49987 0,1.25447 -171.62865,1.40373 -337.5,0.29352 z"
       id="path6162"
       inkscape:connector-curvature="0"
       sodipodi:nodetypes="csssssscssssssscccsssssscsssssssscssssscc" />
    <path
       sodipodi:type="arc"
       style="opacity:0.63600003;fill:#95a5a6;fill-opacity:0.97254902;stroke:#e25000;stroke-opacity:0"
       id="path6166"
       sodipodi:cx="-370.71429"
       sodipodi:cy="451.64789"
       sodipodi:rx="0.71428573"
       sodipodi:ry="7.8571429"
       d="m -370.00001,451.64789 a 0.71428573,7.8571429 0 0 1 -1.42853,0.0876"
       sodipodi:start="0"
       sodipodi:end="3.1304463"
       sodipodi:open="true"
       transform="translate(607.14286,-164.28571)" />
    <path
       transform="translate(607.14286,-164.28571)"
       sodipodi:open="true"
       sodipodi:end="3.1304463"
       sodipodi:start="0"
       d="m -370.00001,451.64789 a 0.71428573,7.8571429 0 0 1 -1.42853,0.0876"
       sodipodi:ry="7.8571429"
       sodipodi:rx="0.71428573"
       sodipodi:cy="451.64789"
       sodipodi:cx="-370.71429"
       id="path6804"
       style="opacity:0.63600003;fill:#95a5a6;fill-opacity:0.97254902;stroke:#e25000;stroke-opacity:0"
       sodipodi:type="arc" />
    <path
       sodipodi:type="arc"
       style="opacity:0.63600003;fill:#95a5a6;fill-opacity:0.97254902;stroke:#e25000;stroke-opacity:0"
       id="path6806"
       sodipodi:cx="-370.71429"
       sodipodi:cy="451.64789"
       sodipodi:rx="0.71428573"
       sodipodi:ry="7.8571429"
       d="m -370.00001,451.64789 a 0.71428573,7.8571429 0 0 1 -1.42853,0.0876"
       sodipodi:start="0"
       sodipodi:end="3.1304463"
       sodipodi:open="true"
       transform="translate(607.14286,-164.28571)" />
    <path
       transform="translate(607.14286,-164.28571)"
       sodipodi:end="6.0411959"
       sodipodi:start="0"
       d="m -370.00001,451.64789 a 0.71428573,7.8571429 0 1 1 -0.0208,-1.88284 l -0.69347,1.88284 z"
       sodipodi:ry="7.8571429"
       sodipodi:rx="0.71428573"
       sodipodi:cy="451.64789"
       sodipodi:cx="-370.71429"
       id="path6808"
       style="opacity:0.63600003;fill:#95a5a6;fill-opacity:0.97254902;stroke:#e25000;stroke-opacity:0"
       sodipodi:type="arc" />
    <path
       style="fill:none;stroke:#000000;stroke-width:1px;stroke-linecap:butt;stroke-linejoin:miter;stroke-opacity:1"
       d="m 211.42857,199.50504 c 278.57143,-2.85714 280,0 280,0 C 490.93787,136.28296 416.82361,140.8155 350,140.93361 c -57.27092,0.0214 -140.09324,-12.71794 -138.57143,58.57143 z"
       id="path6848"
       inkscape:connector-curvature="0"
       sodipodi:nodetypes="cccc" />
    <path
       style="opacity:0.63600003000000005;fill:#f1c40f;fill-opacity:0.97254902000000021;stroke:none;stroke-width:3.87602043000000010;stroke-linejoin:miter;stroke-miterlimit:4;stroke-opacity:0;stroke-dasharray:none"
       d="m 468.70536,202.36218 -0.75,0 -7.125,0 -9.1875,0 -9.71875,0 -1.46875,0 -17.59375,0 -30.1875,0 -13.09375,0 -22.5625,0 -42.84375,-0.1 -28.59375,-0.651 -18.90625,0.751 -14.40625,0 -8.40625,0 -2.5625,0 -10,0 -4.03125,0 -5.84375,0 -6.78125,0 -1.125,0 -4,0 c 0,0 -5.48248,95.52082 22.94312,152.417 7.13096,14.27321 14.14003,27.40927 25.33217,34.2928 28.58764,17.58233 67.98002,25.97376 94.78721,29.47717 13.90254,1.81691 48.04936,-7.21686 79.53307,-21.97693 17.41583,-8.16482 26.49404,-23.85746 35.53515,-43.98285 28.9784,-64.50553 27.99428,-152.10272 27.99428,-152.10272 l -5.78125,1.87553 -16.59821,0 13.41071,0 -6.8125,0 -6.75,0 z m -1.21875,0 0.15625,0 z m -24.28125,0 -1.15625,0 z"
       id="path6914"
       inkscape:connector-curvature="0"
       sodipodi:nodetypes="ccccccccccccccccccccccsssssccccccccccccc" />
    <path
       style="opacity:0.63600003000000005;fill:#ffffff;fill-opacity:1;stroke:#000000;stroke-width:2.24285721999999990;stroke-linejoin:miter;stroke-miterlimit:4;stroke-opacity:0.00452492000000000;stroke-dasharray:none"
       d="m 213.61944,189.19214 c 2.04146,-21.74873 15.16996,-36.01451 39.6363,-43.06985 13.77219,-3.97148 38.62346,-5.10506 94.83719,-4.32598 76.82488,1.06474 95.15785,2.98042 113.86768,11.89844 14.6755,6.99505 25.50127,21.62541 27.5861,37.28086 l 0.85608,6.42857 -138.81082,0.35939 -138.81082,0.35938 0.83829,-8.93081 0,0 z"
       id="path6935"
       inkscape:connector-curvature="0" />
    <path
       style="opacity:0.63600003;fill:#ffffff;fill-opacity:1;stroke:#000000;stroke-width:2.24285722;stroke-linejoin:miter;stroke-miterlimit:4;stroke-opacity:0.00452492;stroke-dasharray:none"
       d="m 214.15036,190.83796 c 2.65715,-23.49534 15.6758,-37.45905 41.31032,-44.30916 10.01252,-2.67557 16.45806,-3.10444 56.35931,-3.75005 48.82142,-0.78993 108.92368,1.37029 127.27899,4.5747 27.42854,4.78839 46.35181,21.27266 49.32549,42.96797 l 0.8729,6.36848 -118.53973,0 c -65.19686,0 -127.30137,0.4202 -138.01002,0.93378 l -19.47027,0.93377 0.87301,-7.71949 z"
       id="path6937"
       inkscape:connector-curvature="0" />
    <path
       style="opacity:0.63600003;fill:#ffffff;fill-opacity:1;stroke:#000000;stroke-width:2.24285722;stroke-linejoin:miter;stroke-miterlimit:4;stroke-opacity:0.00452492;stroke-dasharray:none"
       d="m 215.00017,190.59398 c 2.21091,-21.42172 14.02532,-34.65024 38.19455,-42.76624 8.80428,-2.95646 12.28546,-3.14759 67.14286,-3.68639 60.09947,-0.59029 104.89361,1.11309 121.61581,4.62467 10.99512,2.30892 22.29726,7.64897 30.81306,14.55859 6.45583,5.23819 13.81837,18.64684 15.37896,28.00814 l 0.89307,5.35715 -129.7076,0.0124 c -71.33917,0.007 -133.18299,0.42969 -137.43071,0.93969 l -7.72313,0.92729 0.82313,-7.97532 0,-1e-5 z"
       id="path6939"
       inkscape:connector-curvature="0" />
    <path
       style="opacity:0.63600003;fill:#ffffff;fill-opacity:1;stroke:#000000;stroke-width:2.24285722;stroke-linejoin:miter;stroke-miterlimit:4;stroke-opacity:0.00452492;stroke-dasharray:none"
       d="m 215.30398,190.97561 c 2.47686,-17.72252 10.08264,-29.05882 24.73642,-36.86919 16.70848,-8.90553 19.6377,-9.19403 93.86861,-9.24487 87.52774,-0.06 107.95357,1.75207 126.67196,11.2374 13.72807,6.95653 22.38074,17.59755 26.2566,32.29024 1.08141,4.09946 1.79135,7.62841 1.57765,7.84212 -0.21371,0.2137 -61.95331,0.56503 -137.19912,0.78071 l -136.81056,0.39216 0.89844,-6.42857 z"
       id="path6941"
       inkscape:connector-curvature="0" />
    <path
       style="opacity:0.63600003000000005;fill:none;fill-opacity:1;stroke:none;stroke-width:2.24285721999999990;stroke-linejoin:miter;stroke-miterlimit:4;stroke-opacity:0.00452492000000000;stroke-dasharray:none"
       d="m 215.30398,190.97561 c 2.47686,-17.72252 10.08264,-29.05882 24.73642,-36.86919 16.70848,-8.90553 19.6377,-9.19403 93.86861,-9.24487 87.52774,-0.06 107.95357,1.75207 126.67196,11.2374 13.72807,6.95653 22.38074,17.59755 26.2566,32.29024 1.08141,4.09946 1.79135,7.62841 1.57765,7.84212 -0.21371,0.2137 -61.95331,0.56503 -137.19912,0.78071 l -136.81056,0.39216 0.89844,-6.42857 z"
       id="path6943"
       inkscape:connector-curvature="0" />
    <path
       style="opacity:0;fill:none;fill-opacity:1;stroke:none;stroke-width:2.24285721999999990;stroke-linejoin:miter;stroke-miterlimit:4;stroke-opacity:0.00452492000000000;stroke-dasharray:none"
       d=""
       id="path6955"
       inkscape:connector-curvature="0" />
  </g>
</svg>
