<?xml version="1.0" encoding="UTF-8" standalone="no"?>
<!-- Created with Inkscape (http://www.inkscape.org/) -->

<svg
   xmlns:dc="http://purl.org/dc/elements/1.1/"
   xmlns:cc="http://creativecommons.org/ns#"
   xmlns:rdf="http://www.w3.org/1999/02/22-rdf-syntax-ns#"
   xmlns:svg="http://www.w3.org/2000/svg"
   xmlns="http://www.w3.org/2000/svg"
   xmlns:xlink="http://www.w3.org/1999/xlink"
   version="1.1"
   width="744.09448"
   height="1052.3622"
   id="svg2">
  <defs
     id="defs4">
    <linearGradient
       id="linearGradient5244">
      <stop
         id="stop5246"
         style="stop-color:#ffffff;stop-opacity:1"
         offset="0" />
    </linearGradient>
    <linearGradient
       id="linearGradient6862">
      <stop
         id="stop6864"
         style="stop-color:#000000;stop-opacity:1"
         offset="0" />
    </linearGradient>
    <marker
       refX="0"
       refY="0"
       orient="auto"
       id="Arrow1Lstart"
       style="overflow:visible">
      <path
         d="M 0,0 5,-5 -12.5,0 5,5 0,0 z"
         transform="matrix(0.8,0,0,0.8,10,0)"
         id="path6180"
         style="fill-rule:evenodd;stroke:#000000;stroke-width:1pt" />
    </marker>
    <linearGradient
       id="linearGradient6154">
      <stop
         id="stop6156"
         style="stop-color:#d35400;stop-opacity:1"
         offset="0" />
      <stop
         id="stop6158"
         style="stop-color:#d35400;stop-opacity:0"
         offset="1" />
    </linearGradient>
    <filter
       x="0"
       y="0"
       width="1"
       height="1"
       color-interpolation-filters="sRGB"
       id="filter6003">
      <feColorMatrix
         id="feColorMatrix6005"
         result="result2"
         type="saturate"
         in="SourceGraphic"
         values="1" />
      <feFlood
         id="feFlood6007"
         result="result1"
         flood-opacity="1"
         flood-color="rgb(254,102,0)" />
      <feBlend
         in2="result2"
         mode="multiply"
         in="result1"
         result="result3"
         id="feBlend6009" />
      <feComposite
         in2="SourceGraphic"
         operator="in"
         result="result4"
         id="feComposite6011" />
    </filter>
    <linearGradient
       x1="342.85715"
       y1="385.21933"
       x2="342.85715"
       y2="182.36218"
       id="linearGradient6160"
       xlink:href="#linearGradient6154"
       gradientUnits="userSpaceOnUse" />
  </defs>
  <metadata
     id="metadata7">
    <rdf:RDF>
      <cc:Work
         rdf:about="">
        <dc:format>image/svg+xml</dc:format>
        <dc:type
           rdf:resource="http://purl.org/dc/dcmitype/StillImage" />
        <dc:title></dc:title>
      </cc:Work>
    </rdf:RDF>
  </metadata>
  <g
     transform="translate(0,2.172441e-5)"
     id="layer1">
    <path
       d="m 120.46875,203 0.96875,20.34375 c 1.95726,41.90718 7.44096,76.82334 17.15625,108.875 8.72607,28.78813 27.40342,66.7376 34.09375,69.28125 2.51684,0.9569 71.43816,14.9783 86.625,17.625 1.96429,0.34233 4.00687,0.7055 4.5625,0.8125 0.55563,0.107 -2.51638,-5.09734 -6.84375,-11.5625 C 245.90648,391.75446 229.3486,358.33997 221.5625,336.8125 208.78238,301.47724 201.12473,262.49905 199.71875,225.5 L 198.875,203 l -39.21875,0 -39.1875,0 z"
       id="path3223"
       style="fill:#ffff00;fill-opacity:0" />
    <path
       d="m 500.75,203 -0.0312,8.9375 c -0.0171,11.0826 -3.5473,43.4165 -6.5,59.625 -8.983,49.31112 -29.13933,102.61661 -52.15625,137.875 -5.48069,8.39558 -6.43965,10.6905 -4.5,10.6875 4.04152,-0.007 49.92098,-9.27849 82.09375,-16.59375 l 9.59375,-2.1875 6.59375,-11.65625 c 22.27789,-39.51536 38.51838,-102.33768 41.375,-160.09375 0.43192,-8.73229 1.06696,-18.30357 1.4375,-21.25 L 579.3438,203 l -39.3125,0 -39.28125,0 z"
       id="path3225"
       style="fill:#008000;fill-opacity:0" />
    <path
       d="m 121.59375,203.46875 0.96875,17.5 c 3.99184,70.05796 15.59091,117.44789 40.625,166 12.14183,23.54837 22.82356,32.98204 62.21875,54.96875 32.52964,18.15502 44.40486,27.72965 48.59375,39.125 1.21067,3.29347 3.82966,15.31519 5.8125,26.71875 6.77172,38.945 9.41043,64.05327 10.3125,98.6875 l 0.875,33.6875 -9,0.9375 c -4.94869,0.51724 -16.15097,0.99265 -24.875,1.03125 -8.72403,0.0386 -24.61741,0.59581 -35.34375,1.25 -16.52971,1.00814 -20.79378,1.76825 -27.875,5 -15.62009,7.12872 -27.0355,21.92344 -36.84375,47.71875 C 154.27339,703.42901 152,709.68308 152,710 c 0,0.31693 27.14733,0.75504 60.34375,0.96875 171.88039,1.10655 335.34375,0.97571 335.34375,-0.28125 0,-2.77881 -11.58914,-27.63327 -16.5625,-35.5 -9.2292,-14.59848 -21.55022,-24.98907 -34.1875,-28.84375 -3.11442,-0.94997 -20.45982,-2.2667 -38.53125,-2.90625 -18.07143,-0.63958 -36.54464,-1.62127 -41.0625,-2.1875 l -8.21875,-1.03125 0.0312,-10.875 c 0.0586,-46.08468 11.24412,-138.71356 18.46875,-152.875 4.79574,-9.40045 17.40019,-19.15152 39.1875,-30.3125 41.09243,-21.05038 51.73181,-28.75876 62.71875,-45.53125 9.67324,-14.767 22.92403,-42.30461 28.21875,-58.59375 6.46633,-19.89355 9.51585,-36.39852 13.5625,-73.375 1.98898,-18.17437 4.44393,-40.28572 5.4375,-49.125 l 1.8125,-16.0625 -38.78125,0 -38.78125,0 -1.71875,23.21875 c -6.2513,83.78698 -24.30902,139.37366 -54.25,167.09375 -9.91605,9.18051 -20.3344,13.76735 -49.34375,21.71875 -35.89733,9.83938 -49.95899,10.11445 -81.5625,1.65625 -24.79867,-6.637 -45.36988,-13.06051 -50.28125,-15.6875 -7.5483,-4.03743 -19.03863,-14.42527 -25.4375,-23 C 215.63883,347.95958 206.12718,309.582 202.09375,231.75 c -0.72109,-13.91469 -1.71354,-25.9638 -2.21875,-26.78125 -0.59956,-0.97011 -14.34042,-1.5 -39.59375,-1.5 l -38.6875,0 z"
       id="path5999"
       style="opacity:0.63600003;fill:none;stroke:#e25000;stroke-width:1.42857146;stroke-opacity:0" />
    <path
       d="m 121.59375,203.46875 0.96875,17.5 c 3.99184,70.05796 15.59091,117.44789 40.625,166 12.14183,23.54837 22.82356,32.98204 62.21875,54.96875 32.52964,18.15502 44.40486,27.72965 48.59375,39.125 1.21067,3.29347 3.82966,15.31519 5.8125,26.71875 6.77172,38.945 9.41043,64.05327 10.3125,98.6875 l 0.875,33.6875 -9,0.9375 c -4.94869,0.51724 -16.15097,0.99265 -24.875,1.03125 -8.72403,0.0386 -24.61741,0.59581 -35.34375,1.25 -16.52971,1.00814 -20.79378,1.76825 -27.875,5 -15.62009,7.12872 -27.0355,21.92344 -36.84375,47.71875 C 154.27339,703.42901 152,709.68308 152,710 c 0,0.31693 27.14733,0.75504 60.34375,0.96875 171.88039,1.10655 335.34375,0.97571 335.34375,-0.28125 0,-2.77881 -11.58914,-27.63327 -16.5625,-35.5 -9.2292,-14.59848 -21.55022,-24.98907 -34.1875,-28.84375 -3.11442,-0.94997 -20.45982,-2.2667 -38.53125,-2.90625 -18.07143,-0.63958 -36.54464,-1.62127 -41.0625,-2.1875 l -8.21875,-1.03125 0.0312,-10.875 c 0.0586,-46.08468 11.24412,-138.71356 18.46875,-152.875 4.79574,-9.40045 17.40019,-19.15152 39.1875,-30.3125 41.09243,-21.05038 51.73181,-28.75876 62.71875,-45.53125 9.67324,-14.767 22.92403,-42.30461 28.21875,-58.59375 6.46633,-19.89355 9.51585,-36.39852 13.5625,-73.375 1.98898,-18.17437 4.44393,-40.28572 5.4375,-49.125 l 1.8125,-16.0625 -38.78125,0 -38.78125,0 -1.71875,23.21875 c -6.2513,83.78698 -24.30902,139.37366 -54.25,167.09375 -9.91605,9.18051 -20.3344,13.76735 -49.34375,21.71875 -35.89733,9.83938 -49.95899,10.11445 -81.5625,1.65625 -24.79867,-6.637 -45.36988,-13.06051 -50.28125,-15.6875 -7.5483,-4.03743 -19.03863,-14.42527 -25.4375,-23 C 215.63883,347.95958 206.12718,309.582 202.09375,231.75 c -0.72109,-13.91469 -1.71354,-25.9638 -2.21875,-26.78125 -0.59956,-0.97011 -14.34042,-1.5 -39.59375,-1.5 l -38.6875,0 z"
       id="path6001"
       style="opacity:0.63600003;fill:none;stroke:#e25000;stroke-width:1.42857146;stroke-opacity:0;filter:url(#filter6003)" />
    <path
       d="m 210.19912,710.97025 c -32.01786,-0.21432 -58.21429,-0.7281 -58.21429,-1.14177 0,-0.41366 2.28029,-6.6743 5.06732,-13.91255 9.91237,-25.74361 21.31181,-40.44727 36.85882,-47.54265 7.08122,-3.23175 11.32743,-3.99425 27.85714,-5.00239 10.72634,-0.65419 26.64028,-1.22099 35.36431,-1.25956 8.72403,-0.0386 19.91078,-0.49331 24.85947,-1.01055 l 8.9976,-0.94043 -0.87894,-33.70243 C 289.1798,570.76963 286.446,545.28198 279.27873,505.47098 274.74812,480.30539 273.17557,476.16318 265.19686,468.37785 257.73485,461.0967 250.58624,456.35925 225.32308,441.9531 198.16322,426.4654 181.73035,414.79616 174.80874,406.08209 164.27383,392.819 146.56195,353.57846 138.38262,325.3803 130.18128,297.10623 124.94411,262.50948 122.57721,220.96979 l -0.99713,-17.5 39.35985,0 39.35985,0 0.83022,11.78571 c 0.45662,6.48215 1.52071,23.35715 2.36465,37.5 5.42754,90.95628 29.65085,140.38115 75.64217,154.33915 49.74951,15.0986 68.05663,18.23143 87.86478,15.03603 14.12273,-2.27823 43.45796,-10.34336 57.95079,-15.93239 41.08671,-15.84471 66.72396,-77.77385 74.31474,-179.51421 l 1.73202,-23.2139 39.01942,-3.9e-4 c 30.592,-3.1e-4 38.88629,0.38568 38.40292,1.78571 -0.3391,0.98215 -2.27853,18.17858 -4.30983,38.21429 -5.97381,58.9222 -8.57157,74.57174 -16.3625,98.57143 -5.28431,16.27814 -18.54756,43.80284 -28.22873,58.58194 -10.98694,16.77249 -21.60247,24.48206 -62.6949,45.53244 -21.78464,11.1596 -34.40824,20.92296 -39.2021,30.3197 -7.15868,14.03216 -18.49574,108.05768 -18.49574,153.39702 l 0,10.37128 8.92857,1.04116 c 4.91071,0.57264 23.39286,1.54499 41.07143,2.16079 36.51247,1.27181 42.99828,2.6319 53.83524,11.28928 8.77109,7.00703 11.79276,10.41147 18.14367,20.44203 4.9751,7.85763 16.59252,32.71322 16.59252,35.49987 0,1.25447 -171.62865,1.40373 -337.5,0.29352 z"
       id="path6162"
       style="fill:#7f898a;fill-opacity:1;stroke:none" />
    <path
       d="m 215.30398,190.97561 c 2.47686,-17.72252 10.08264,-29.05882 24.73642,-36.86919 16.70848,-8.90553 19.6377,-9.19403 93.86861,-9.24487 87.52774,-0.06 107.95357,1.75207 126.67196,11.2374 13.72807,6.95653 22.38074,17.59755 26.2566,32.29024 1.08141,4.09946 1.79135,7.62841 1.57765,7.84212 -0.21371,0.2137 -61.95331,0.56503 -137.19912,0.78071 l -136.81056,0.39216 0.89844,-6.42857 z"
       id="path6943"
       style="opacity:0.63600003;fill:none;stroke:none" />
    <path
       d=""
       id="path6955"
       style="opacity:0;fill:none;stroke:none" />
    <path
       d="m 297.03125,138.36665 -2.52053,0.28523 -1.19397,2.23805 -1.05015,-2.30903 -2.49748,-0.44393 1.87151,-1.71229 -0.34956,-2.51242 2.2068,1.25078 2.28144,-1.10883 -0.50762,2.48531 z"
       id="path3014"
       style="fill:#000000;fill-opacity:0" />
    <path
       d="m 303.43749,137.27289 -2.02855,0.009 -1.1423,1.67638 -0.63576,-1.92637 -1.94732,-0.56837 1.63563,-1.19992 -0.0612,-2.02765 1.64664,1.18478 1.90949,-0.68479 -0.61796,1.93216 z"
       id="path3016"
       style="fill:#000000;fill-opacity:0" />
    <path
       d="m 214.73211,195.31285 c 1.62402,-15.5425 4.84939,-23.79566 12.40995,-31.75497 5.60995,-5.90582 12.4255,-10.15848 22.54233,-14.0656 8.79104,-3.3951 10.93574,-3.73733 27.31922,-4.35926 17.59916,-0.66808 97.27443,-0.68385 116.74333,-0.0231 23.17389,0.78649 38.93425,2.10922 48.30951,4.0545 11.21068,2.32611 24.61555,8.99171 31.90527,15.86497 6.54233,6.16856 13.00207,19.22692 14.453,29.21675 l 0.34846,2.39912 -117.58746,0.0374 c -106.65716,0.0339 -149.50793,0.38654 -154.84788,1.27424 l -1.90509,0.31669 0.30936,-2.96073 0,2e-5 z"
       id="path3018"
       style="fill:#ffffff;fill-opacity:0" />
    <path
       d="m 214.73211,195.31285 c 1.62402,-15.5425 4.84939,-23.79566 12.40995,-31.75497 5.60995,-5.90582 12.4255,-10.15848 22.54233,-14.0656 8.79104,-3.3951 10.93574,-3.73733 27.31922,-4.35926 17.59916,-0.66808 97.27443,-0.68385 116.74333,-0.0231 23.17389,0.78649 38.93425,2.10922 48.30951,4.0545 11.21068,2.32611 24.61555,8.99171 31.90527,15.86497 6.54233,6.16856 13.00207,19.22692 14.453,29.21675 l 0.34846,2.39912 -117.58746,0.0374 c -106.65716,0.0339 -149.50793,0.38654 -154.84788,1.27424 l -1.90509,0.31669 0.30936,-2.96073 0,2e-5 z"
       id="path3020"
       style="fill:#ffffff;fill-opacity:0" />
    <path
       d="m 214.73211,195.31285 c 1.62402,-15.5425 4.84939,-23.79566 12.40995,-31.75497 5.60995,-5.90582 12.4255,-10.15848 22.54233,-14.0656 8.79104,-3.3951 10.93574,-3.73733 27.31922,-4.35926 17.59916,-0.66808 97.27443,-0.68385 116.74333,-0.0231 23.17389,0.78649 38.93425,2.10922 48.30951,4.0545 11.21068,2.32611 24.61555,8.99171 31.90527,15.86497 6.54233,6.16856 13.00207,19.22692 14.453,29.21675 l 0.34846,2.39912 -117.58746,0.0374 c -106.65716,0.0339 -149.50793,0.38654 -154.84788,1.27424 l -1.90509,0.31669 0.30936,-2.96073 0,2e-5 z"
       id="path3022"
       style="fill:#ffffff;fill-opacity:0" />
    <path
       d="m 214.73211,195.31285 c 1.62402,-15.5425 4.84939,-23.79566 12.40995,-31.75497 5.60995,-5.90582 12.4255,-10.15848 22.54233,-14.0656 8.79104,-3.3951 10.93574,-3.73733 27.31922,-4.35926 17.59916,-0.66808 97.27443,-0.68385 116.74333,-0.0231 23.17389,0.78649 38.93425,2.10922 48.30951,4.0545 11.21068,2.32611 24.61555,8.99171 31.90527,15.86497 6.54233,6.16856 13.00207,19.22692 14.453,29.21675 l 0.34846,2.39912 -117.58746,0.0374 c -106.65716,0.0339 -149.50793,0.38654 -154.84788,1.27424 l -1.90509,0.31669 0.30936,-2.96073 0,2e-5 z"
       id="path3024"
       style="fill:#ffffff;fill-opacity:0" />
    <path
       d="m 215.00017,190.59398 c 2.21091,-21.42172 14.02532,-34.65024 38.19455,-42.76624 8.80428,-2.95646 12.28546,-3.14759 67.14286,-3.68639 60.09947,-0.59029 104.89361,1.11309 121.61581,4.62467 10.99512,2.30892 22.29726,7.64897 30.81306,14.55859 6.45583,5.23819 13.81837,18.64684 15.37896,28.00814 l 0.89307,5.35715 -129.7076,0.0124 c -71.33917,0.007 -133.18299,0.42969 -137.43071,0.93969 l -7.72313,0.92729 0.82313,-7.97532 0,-1e-5 z"
       id="path6939"
       style="fill:#ffffff;fill-opacity:1;stroke:#000000;stroke-width:2.24285722;stroke-linejoin:miter;stroke-miterlimit:4;stroke-opacity:0;stroke-dasharray:none" />
    <path
       d="m 466.38393,203.61218 -0.75,0 -7.125,0 -9.1875,0 -9.71875,0 -1.46875,0 -17.59375,0 -30.1875,0 -13.09375,0 -22.5625,0 -42.84375,-0.1 -28.59375,-0.651 -18.90625,0.751 -14.40625,0 -8.40625,0 -2.5625,0 -10,0 -4.03125,0 -5.84375,0 -6.78125,0 -1.125,0 -4,0 c 0,0 -5.48248,95.52082 22.94312,152.417 7.13096,14.27321 14.14003,27.40927 25.33217,34.2928 28.58764,17.58233 67.98002,25.97376 94.78721,29.47717 13.90254,1.81691 48.04936,-7.21686 79.53307,-21.97693 17.41583,-8.16482 26.49404,-23.85746 35.53515,-43.98285 28.9784,-64.50553 27.99428,-152.10272 27.99428,-152.10272 l -5.78125,1.87553 -16.59821,0 13.41071,0 -6.8125,0 -6.75,0 z m -1.21875,0 0.15625,0 z m -24.28125,0 -1.15625,0 z"
       id="path6914"
       style="fill:#b89c2c;fill-opacity:1;stroke:none" />
  </g>
</svg>
